<?xml version="1.0" encoding="UTF-8"?>
<svg id="Layer_1" data-name="Layer 1" xmlns="http://www.w3.org/2000/svg" viewBox="0 0 1856 626">
  <defs>
    <style>
      .cls-1 {
        fill: #e56666;
      }

      .cls-1, .cls-2, .cls-3, .cls-4, .cls-5, .cls-6 {
        stroke-width: 0px;
      }

      .cls-3 {
        fill: #be7356;
      }

      .cls-4 {
        fill: #e9bfa6;
      }

      .cls-5 {
        fill: #65001e;
      }

      .cls-6 {
        fill: #7a2a37;
      }
    </style>
  </defs>
  <g>
    <g>
      <path class="cls-5" d="M1567.94,521.42c0,4.14-3.36,7.76-7.5,7.76-4.4,0-7.76-3.62-7.76-7.76s3.36-7.5,7.76-7.5c4.14,0,7.5,3.36,7.5,7.5Z"/>
      <path class="cls-5" d="M1579.32,492.45c0-31.81,24.57-37.5,33.88-37.5,12.93,0,27.42,4.66,27.42,4.66v14.23s-13.19-19.66-30.52-16.55c-13.71,2.33-14.74,23.02-14.74,34.66,0,12.41,9.31,30.78,25.86,30.78,8.28,0,16.81-4.4,20.69-11.64,0,0-4.66,19.4-26.64,19.4-19.4,0-35.95-15.52-35.95-38.02Z"/>
      <path class="cls-5" d="M1726.74,492.71c0,20.95-16.29,37.76-36.73,37.76s-36.73-16.81-36.73-37.76,16.29-37.76,36.73-37.76,36.73,16.81,36.73,37.76ZM1712,488.31c-3.62-18.88-16.55-32.59-28.45-30.26-11.9,2.33-18.88,19.66-15.26,39.05,3.62,19.14,16.29,32.59,28.19,30.26,12.16-2.33,19.14-19.92,15.52-39.05Z"/>
      <path class="cls-5" d="M1837.18,474.09c0-9.57-6.98-15.78-15.78-15.78-8.79.26-16.29,6.72-16.29,13.97v48.62c0,5.69,3.36,8.28,3.36,8.28h-22.5s3.36-2.33,3.36-8.28v-46.81c0-10.35-6.98-15.78-15.26-15.78-8.79,0-16.81,7.24-16.81,11.64v50.95c0,5.95,3.36,8.28,3.36,8.28h-22.5s3.36-2.33,3.36-8.28v-57.16c0-5.69-3.36-8.02-3.36-8.02h19.14v9.31c3.36-5.69,12.42-10.09,21.21-10.09,15,0,23.28,10.35,24.83,13.45,3.1-8.02,10.6-13.45,23.02-13.45,16.04,0,26.64,9.57,26.64,24.83v41.12c0,5.95,3.36,8.28,3.36,8.28h-22.5s3.36-2.33,3.36-8.28v-46.81Z"/>
    </g>
    <g>
      <path class="cls-6" d="M202.56,273.96v38.58s-27.38-32.36-62.23-32.36h-20.54v234.6c0,14.31,8.09,19.91,8.09,19.91h-53.52s8.09-5.6,8.09-19.91v-234.6h-20.54c-34.85,0-62.23,32.36-62.23,32.36v-38.58h202.86Z"/>
      <path class="cls-6" d="M332.62,494.25s-15.56,43.56-64.1,43.56-88.36-39.83-88.36-88.99c0-54.76,36.71-92.72,84.63-92.72,64.1,0,74.67,66.58,74.67,76.54l-123.83,19.29c4.36,37.34,30.49,68.45,68.45,68.45,27.38,0,48.54-26.14,48.54-26.14ZM215.01,445.71l92.72-14.31c-6.84-41.69-27.38-72.81-55.38-69.07-36.71,4.98-37.96,60.36-37.34,83.39Z"/>
      <path class="cls-6" d="M414.76,534.7h-54.14s8.09-5.6,8.09-19.91v-220.91c0-14.31-8.09-19.91-8.09-19.91h46.05v240.82c0,14.31,8.09,19.91,8.09,19.91Z"/>
      <path class="cls-6" d="M613.26,534.7h-46.67v-22.4c-8.09,13.07-29.87,24.89-50.4,24.89-38.58,0-65.96-21.16-65.96-59.12v-100.19c0-14.31-8.09-19.91-8.09-19.91h46.05v132.55c0,23.02,20.54,36.09,39.2,36.09,19.91,0,39.2-16.18,39.2-26.76v-121.97c0-14.31-8.09-19.91-8.09-19.91h46.05v156.82c0,14.31,8.71,19.91,8.71,19.91Z"/>
      <path class="cls-6" d="M803.05,560.21c4.98,26.14-24.27,51.03-59.74,51.03v-4.36c25.51,0,60.98-24.89,46.67-43.56-3.11-4.36-6.85-6.22-11.2-6.22-21.78,0-56.63,54.14-95.21,54.14-28.62,0-37.34-24.89-37.34-39.2,0-26.76,26.14-48.54,54.14-58.5-34.85-9.96-59.74-39.83-59.74-77.16,0-28.62,16.18-54.14,39.83-68.45,6.84-8.71,39.83-52.27,85.88-52.27,8.09,0,16.18,1.24,24.89,4.36l-9.96,29.25s-18.67-9.96-41.69-9.96c-12.45,0-26.14,2.49-38.58,11.82-3.73,3.11-8.71,7.47-13.07,12.45,11.2-4.98,23.65-7.47,36.71-7.47,46.67,0,84.63,36.09,84.63,80.27s-37.96,80.9-84.63,80.9c-1.87,0-4.36,0-6.22-.62-9.96-.62-18.67,1.87-27.38,6.22-19.91,10.58-42.32,33.6-29.87,49.78,3.11,4.36,6.85,6.22,11.2,6.22,21.78,0,57.87-49.16,90.23-49.16,30.49,0,38.58,21.16,40.45,30.49ZM740.2,510.43c26.76-4.98,42.31-42.32,34.23-82.76-8.71-41.07-37.34-70.32-64.72-65.34s-42.32,42.32-34.23,83.39c8.09,41.07,37.34,69.7,64.72,64.72Z"/>
      <path class="cls-6" d="M1001.56,534.7h-46.67v-22.4c-8.09,13.07-29.87,24.89-50.41,24.89-38.58,0-65.96-21.16-65.96-59.12v-100.19c0-14.31-8.09-19.91-8.09-19.91h46.05v132.55c0,23.02,20.54,36.09,39.2,36.09,19.91,0,39.2-16.18,39.2-26.76v-121.97c0-14.31-8.09-19.91-8.09-19.91h46.05v156.82c0,14.31,8.71,19.91,8.71,19.91Z"/>
      <path class="cls-6" d="M1084.93,364.81v124.46c0,49.16,33.6,46.05,33.6,46.05,0,0-9.33,3.11-21.78,3.11-21.16,0-49.78-8.71-49.78-55.38v-118.23h-18.05v-6.22h14.31c34.23,0,32.36-84.01,39.83-84.01h1.87v84.01h33.6v6.22h-33.6Z"/>
      <path class="cls-6" d="M1200.05,534.7h-54.14s8.09-5.6,8.09-19.91v-136.9c0-14.31-8.09-19.91-8.09-19.91h46.05v156.82c0,14.31,8.09,19.91,8.09,19.91ZM1173.29,338.68c-10.58,0-19.29-8.71-19.29-18.67,0-10.58,8.71-19.29,19.29-19.29,9.96,0,18.67,8.71,18.67,19.29,0,9.96-8.71,18.67-18.67,18.67Z"/>
      <path class="cls-6" d="M1373.67,494.25s-15.56,43.56-64.09,43.56-88.36-39.83-88.36-88.99c0-54.76,36.71-92.72,84.63-92.72,64.09,0,74.67,66.58,74.67,76.54l-123.83,19.29c4.36,37.34,30.49,68.45,68.45,68.45,27.38,0,48.54-26.14,48.54-26.14ZM1256.06,445.71l92.72-14.31c-6.85-41.69-27.38-72.81-55.38-69.07-36.71,4.98-37.96,60.36-37.34,83.39Z"/>
      <path class="cls-6" d="M1467.62,356.1c32.36,0,57.87,4.98,57.87,4.98v32.98c-13.69-21.16-42.32-31.74-63.47-31.74-9.33,0-17.42,1.87-21.78,6.85-16.18,18.67,13.69,37.96,49.16,69.7,23.03,19.91,39.2,35.47,39.83,54.14,1.87,30.49-23.65,44.8-56.63,44.8-26.76,0-60.36-4.36-60.36-4.36v-32.98c19.29,22.4,44.18,30.49,62.85,30.49,13.07,0,23.03-3.73,26.14-9.33,13.07-17.42-18.67-40.45-18.67-40.45l-46.05-38.58c-28.62-25.51-29.25-43.56-28-51.65,1.87-14.93,16.8-34.85,59.12-34.85Z"/>
    </g>
  </g>
  <g>
    <path class="cls-3" d="M1085.72,184.76c23.23-21.55,45.07-42.87,71.23-58.95,12.2-7.5,25.11-13.2,39.6-14.7,18.53-1.91,34.38,7.42,41.07,24.42,6.94,17.64,1.72,37.45-12.97,48.08-4.42,3.2-9.35,5.72-14.04,8.56,5.74,5.22,12.05,9.88,17.01,15.69,10.66,12.47,10.98,30.77,1.68,46.15-8.51,14.08-23.82,20.92-39.97,18.02-14.38-2.59-27.21-8.95-37.88-18.47-14.48-12.92-28.15-26.77-41.64-40.74-8.37-8.67-15.77-18.28-24.1-28.05Z"/>
    <path class="cls-3" d="M1080.42,184.1c-23.02,27.52-43.82,55.37-73.22,74.43-9.4,6.09-20.43,10.46-31.32,13.25-15.52,3.98-30.95-3.86-39.32-17.62-9.35-15.38-9.33-32.98,1.02-45.6,4.97-6.06,11.39-10.93,17.43-16.6-1.68-.96-3.73-2.18-5.83-3.32-21.32-11.56-29.3-31.83-20.93-53.22,7.7-19.68,26.75-28.44,49.94-22.82,19.63,4.76,36.24,15.38,51.55,27.96,16.99,13.95,33.38,28.63,50.67,43.55Z"/>
  </g>
  <g>
    <path class="cls-4" d="M1119.72,148.5c-10.35-7.2-20.26-14.11-30.71-21.38,22.55-35.16,42.47-71.52,74.65-98.65,10.3-8.68,21.79-15.36,35.32-17.5,18.47-2.93,33.17,4.01,43.12,19.33,10.15,15.62,12.61,32.66,2.36,49.31-4.36,7.09-10.8,12.9-16.62,19.68,15.09,5.03,29.8,10.94,36.58,27.26,4.44,10.69,5.76,21.68,2.77,32.97-5.44,20.53-22.54,33.29-44.14,32.51,3.37-2.71,6.45-4.98,9.31-7.5,13.66-12.05,16.83-27.53,13.25-44.48-3.64-17.23-13.85-30.09-31.24-33.99-9.4-2.11-20.18-1.23-29.69,1.02-20.79,4.92-37.36,18-53.45,31.44-3.69,3.08-7.26,6.3-11.51,9.99Z"/>
    <path class="cls-4" d="M1047.26,147.7c-15.17-10.9-29-21.49-43.5-31.06-11-7.26-23.43-11.5-36.79-12.39-20.09-1.34-36.91,9.21-44.51,27.93-7.71,18.99-3.12,40.26,11.49,52.88,2.58,2.23,5.37,4.21,8.19,6.4-17.63,3.06-36.67-10.14-42.88-29.66-4.51-14.17-2.5-27.75,4.83-40.45,7.43-12.87,20.65-17.49,35.26-22.64-4.93-4.54-9.41-8.05-13.15-12.23-12.5-13.98-13.87-30.04-7.36-46.94,6.37-16.53,18.5-26.55,36.2-29.02,11.91-1.66,22.84,2.25,32.77,8.22,7.61,4.58,14.85,10.03,21.42,16.02,18.9,17.22,57.25,70.87,66.84,92.81-9.8,6.85-19.72,13.78-28.83,20.13Z"/>
  </g>
  <g>
    <path class="cls-1" d="M1091.98,65.27c-.23-2.21-.39-3.8-.59-5.8,5.3,1.55,5.47,2.94.59,5.8Z"/>
    <path class="cls-1" d="M1073.08,59.47c.23,2.21.39,3.8.59,5.8-5.3-1.55-5.47-2.94-.59-5.8Z"/>
  </g>
  <path class="cls-2" d="M1104.49,51.64c3.33-1.8,6.66-3.6,10-5.41.69.54,1.49.97,2.17,1.5-3.19,2.12-6.49,4.35-9.69,6.47-.83-.85-1.65-1.71-2.48-2.56Z"/>
  <path class="cls-2" d="M1063.55,51.5c-3.01-1.63-6.01-3.25-9.02-4.88l-1.86,1.45c2.88,1.91,5.76,3.82,8.64,5.74.75-.77,1.49-1.54,2.24-2.31Z"/>
</svg>